HIERARCHY
ROOT Hips
{
	OFFSET 0.000000 0.000000 0.000000
	CHANNELS 6 Xposition Yposition Zposition Xrotation Yrotation Zrotation
	JOINT LeftUpLeg_virtual
	{
		OFFSET 0.000000 0.000000 0.000000
		CHANNELS 3 Xrotation Yrotation Zrotation
		JOINT LeftUpLeg
		{
			OFFSET 13.026900 -6.336304 -1.092800
			CHANNELS 3 Xrotation Yrotation Zrotation
			JOINT LeftLeg
			{
				OFFSET 0.524474 -46.096886 9.782700
				CHANNELS 3 Xrotation Yrotation Zrotation
				JOINT LeftFoot
				{
					OFFSET -0.524474 -53.427422 -12.948200
					CHANNELS 3 Xrotation Yrotation Zrotation
					JOINT LeftToeBase
					{
						OFFSET 0.192200 -14.009700 16.364100
						CHANNELS 3 Xrotation Yrotation Zrotation
						JOINT LeftToe_End
						{
							OFFSET -1.784700 -0.561700 9.474800
							CHANNELS 3 Xrotation Yrotation Zrotation
							End Site
							{
								OFFSET 0 0 0
							}
						}
					}
				}
			}
		}
	}
	JOINT RightUpLeg_virtual
	{
		OFFSET 0.000000 0.000000 0.000000
		CHANNELS 3 Xrotation Yrotation Zrotation
		JOINT RightUpLeg
		{
			OFFSET -12.883000 -6.336304 -1.092800
			CHANNELS 3 Xrotation Yrotation Zrotation
			JOINT RightLeg
			{
				OFFSET -0.524587 -46.096825 9.782800
				CHANNELS 3 Xrotation Yrotation Zrotation
				JOINT RightFoot
				{
					OFFSET 0.524587 -53.427383 -12.948300
					CHANNELS 3 Xrotation Yrotation Zrotation
					JOINT RightToeBase
					{
						OFFSET -0.192200 -14.009700 16.364100
						CHANNELS 3 Xrotation Yrotation Zrotation
						JOINT RightToe_End
						{
							OFFSET 1.784700 -0.561700 9.474800
							CHANNELS 3 Xrotation Yrotation Zrotation
							End Site
							{
								OFFSET 0 0 0
							}
						}
					}
				}
			}
		}
	}
	JOINT Spine_virtual
	{
		OFFSET 0.000000 0.000000 0.000000
		CHANNELS 3 Xrotation Yrotation Zrotation
		JOINT Spine
		{
			OFFSET 0.072000 7.257294 -0.789700
			CHANNELS 3 Xrotation Yrotation Zrotation
			JOINT Spine1
			{
				OFFSET 0.000000 12.508769 -0.658067
				CHANNELS 3 Xrotation Yrotation Zrotation
				JOINT Spine1_split
				{
					OFFSET 0.000000 12.508769 -0.658067
					CHANNELS 3 Xrotation Yrotation Zrotation
					JOINT Spine2
					{
						OFFSET 0.000000 12.508769 -0.658067
						CHANNELS 3 Xrotation Yrotation Zrotation
						JOINT Neck_virtual
						{
							OFFSET 0.000000 0.000000 0.000000
							CHANNELS 3 Xrotation Yrotation Zrotation
							JOINT Neck
							{
								OFFSET 0.000000 14.033295 7.520400
								CHANNELS 3 Xrotation Yrotation Zrotation
								JOINT Head
								{
									OFFSET 0.000000 8.198502 5.703100
									CHANNELS 3 Xrotation Yrotation Zrotation
									JOINT HeadTop_End
									{
										OFFSET 0.000000 17.760803 13.332701
										CHANNELS 3 Xrotation Yrotation Zrotation
										End Site
										{
											OFFSET 0 0 0
										}
									}
								}
							}
						}
						JOINT LeftShoulder_virtual
						{
							OFFSET 0.000000 0.000000 0.000000
							CHANNELS 3 Xrotation Yrotation Zrotation
							JOINT LeftShoulder
							{
								OFFSET 6.292450 5.785301 -0.669000
								CHANNELS 3 Xrotation Yrotation Zrotation
								JOINT LeftShoulder_split
								{
									OFFSET 6.292450 5.785301 -0.669000
									CHANNELS 3 Xrotation Yrotation Zrotation
									JOINT LeftArm
									{
										OFFSET 13.907140 -6.093903 1.965100
										CHANNELS 3 Xrotation Yrotation Zrotation
										JOINT LeftForeArm
										{
											OFFSET 34.140198 0.000000 0.000000
											CHANNELS 3 Xrotation Yrotation Zrotation
											JOINT LeftHand
											{
												OFFSET 40.960209 0.000000 0.000000
												CHANNELS 3 Xrotation Yrotation Zrotation
												End Site
												{
													OFFSET 0 0 0
												}
											}
										}
									}
								}
							}
						}
						JOINT RightShoulder_virtual
						{
							OFFSET 0.000000 0.000000 0.000000
							CHANNELS 3 Xrotation Yrotation Zrotation
							JOINT RightShoulder
							{
								OFFSET -6.292450 5.785301 -0.669000
								CHANNELS 3 Xrotation Yrotation Zrotation
								JOINT RightShoulder_split
								{
									OFFSET -6.292450 5.785301 -0.669000
									CHANNELS 3 Xrotation Yrotation Zrotation
									JOINT RightArm
									{
										OFFSET -13.907140 -6.093903 1.965100
										CHANNELS 3 Xrotation Yrotation Zrotation
										JOINT RightForeArm
										{
											OFFSET -34.140198 0.000000 0.000000
											CHANNELS 3 Xrotation Yrotation Zrotation
											JOINT RightHand
											{
												OFFSET -40.960209 0.000000 0.000000
												CHANNELS 3 Xrotation Yrotation Zrotation
												End Site
												{
													OFFSET 0 0 0
												}
											}
										}
									}
								}
							}
						}
					}
				}
			}
		}
	}
}
MOTION
Frames: 8
Frame Time: 0.03333333
-3.547170 166.175018 -1.450111 0.000000 0.000000 0.000000 6.114032 -0.200675 4.500526 -43.967017 12.085677 2.837726 39.739099 9.715127 -2.556769 37.305100 8.915395 4.017456 -4.388204 0.997765 -0.069899 0.000000 0.000000 0.000000 7.648222 1.252612 4.080481 -8.582980 4.608520 -7.516298 28.730306 -4.509774 4.893012 23.895955 -12.602742 20.016289 0.433559 2.494377 -0.133566 0.000000 0.000000 0.000000 7.662899 -2.354058 4.322377 -8.707084 2.327859 0.522231 -5.141765 1.505287 0.641031 2.088782 -5.163223 2.605013 0.000000 0.000000 0.000000 -2.137307 0.270311 0.523203 -14.314062 -3.303613 -0.737530 -4.354334 1.198594 1.081386 0.000000 0.000000 0.000000 -6.815363 0.719288 0.351135 14.347912 1.489374 29.743534 11.772508 10.409131 -0.282992 -55.238161 -40.398165 3.774700 -41.890817 -23.883315 2.106259 0.000000 0.000000 0.000000 -7.202759 0.590596 1.423854 2.927324 -9.747881 -33.044588 -0.525453 4.256871 0.890906 -72.982812 32.828485 12.487157 -26.056040 28.399600 1.460600 0.000000 0.000000 0.000000 
-2.172821 166.679413 -3.804497 0.000000 0.000000 0.000000 6.002177 -1.950759 4.603448 -42.651109 9.998342 1.498003 41.774451 8.672693 -2.252650 34.783695 8.182559 3.272126 -4.414191 0.748929 0.261052 0.000000 0.000000 0.000000 7.765652 -0.417397 4.123745 -9.812507 2.485807 -7.755881 32.224894 -3.408455 4.967242 25.759794 -11.141434 20.062125 2.371111 2.461829 -0.276827 0.000000 0.000000 0.000000 7.823474 -3.664598 4.408975 -8.862682 2.121125 0.641431 -5.204320 1.704514 1.126036 1.508709 -3.324011 1.673403 0.000000 0.000000 0.000000 -1.375445 0.573934 0.697972 -14.532447 -3.516268 0.267353 -5.390439 0.675653 1.069917 0.000000 0.000000 0.000000 -6.546429 0.927799 0.778179 14.417136 1.568449 30.184283 11.060375 8.527058 -0.267951 -57.077323 -42.009242 1.156904 -40.332397 -24.176312 3.850846 0.000000 0.000000 0.000000 -6.541039 0.753471 1.560209 3.080612 -9.680675 -33.180284 -0.900369 4.225903 0.925667 -72.842192 32.122940 11.745218 -26.008659 28.567468 1.319804 0.000000 0.000000 0.000000 
-0.197129 167.535461 -7.095108 0.000000 0.000000 0.000000 5.396727 -5.411768 4.331987 -42.329073 7.555382 -0.316887 46.536237 5.359372 -1.453443 29.692977 5.560454 1.678191 -4.630123 0.402919 0.472780 0.000000 0.000000 0.000000 7.730517 -3.782183 3.974530 -10.074786 0.118195 -7.939519 34.203583 -2.908191 4.768513 27.845377 -8.920540 19.669826 1.390507 2.314048 0.049984 0.000000 0.000000 0.000000 7.626932 -7.045126 4.285112 -8.161489 2.347024 1.043822 -5.162533 2.724996 1.663588 1.444881 -1.301234 0.200308 0.000000 0.000000 0.000000 -0.757910 1.782481 0.874680 -14.919761 -3.247924 0.854374 -7.835901 0.875771 1.106420 0.000000 0.000000 0.000000 -6.411156 2.031506 1.135518 14.892659 2.352153 30.310846 9.833972 6.430115 -0.432856 -62.613492 -42.691640 -4.045687 -37.587624 -27.137037 7.233646 0.000000 0.000000 0.000000 -5.934658 1.830837 1.833269 3.918606 -9.070127 -33.255720 -1.291627 3.980721 0.746414 -73.232605 30.406240 11.332488 -26.277577 29.056967 1.111906 0.000000 0.000000 0.000000 
1.673271 168.758652 -10.081554 0.000000 0.000000 0.000000 4.639316 -9.895122 3.670513 -42.970014 5.452469 -2.125647 51.625913 1.482810 -0.410936 22.926688 2.595558 -0.005509 -5.037835 -0.008074 0.585170 0.000000 0.000000 0.000000 7.624106 -9.024225 3.599283 -9.039919 -2.409638 -8.053112 33.973993 -3.312494 4.208789 28.423429 -7.534091 17.238962 -0.378252 2.096861 0.849861 0.000000 0.000000 0.000000 7.019510 -12.863335 3.750906 -6.577290 3.040455 1.648895 -4.953668 4.450170 2.218104 1.835297 0.639747 -0.854263 0.000000 0.000000 0.000000 -0.415537 3.756686 1.064602 -15.392764 -2.694168 1.051258 -11.108515 1.823065 1.295580 0.000000 0.000000 0.000000 -6.224761 3.883001 1.368664 15.658366 3.998896 30.197274 7.754729 4.669528 -0.432442 -68.926724 -41.463872 -8.879496 -33.958352 -30.440036 12.369030 0.000000 0.000000 0.000000 -5.359725 3.783720 2.221129 5.208695 -8.091899 -33.427431 -1.783887 3.610398 0.328675 -74.081564 28.705697 11.322697 -26.672295 29.671001 0.756470 0.000000 0.000000 0.000000 
3.043510 170.353043 -12.724003 0.000000 0.000000 0.000000 4.068584 -15.683754 2.714895 -43.563230 4.203840 -3.540738 54.271850 -1.061882 0.323824 15.553089 1.389601 -0.302150 -5.407965 -0.415352 0.559773 0.000000 0.000000 0.000000 7.656304 -16.233983 3.111453 -7.249649 -4.751617 -8.508265 32.134975 -4.248299 3.419367 27.665869 -7.232440 12.273548 0.184293 1.857419 2.060819 0.000000 0.000000 0.000000 6.199898 -20.549995 2.910656 -4.424137 4.159925 2.309836 -4.544908 6.657464 2.771656 2.502117 1.388441 -0.754625 0.000000 0.000000 0.000000 -0.296673 6.227507 1.300941 -15.635819 -2.080476 1.121296 -14.163577 3.431311 1.709046 0.000000 0.000000 0.000000 -5.760075 6.230771 1.474493 16.589244 6.460262 29.852581 5.454858 3.269425 -0.597422 -73.044440 -39.357828 -10.877991 -30.834086 -32.524927 18.100194 0.000000 0.000000 0.000000 -4.834787 6.403276 2.705041 6.656688 -6.897544 -33.845589 -2.229965 3.157834 -0.429472 -75.157769 28.035645 11.662957 -27.114878 30.473907 0.246170 0.000000 0.000000 0.000000 
3.781018 172.764008 -15.813282 0.000000 0.000000 0.000000 3.996583 -23.812392 1.789514 -43.068499 3.724584 -4.110158 52.953360 -1.359544 0.312677 9.157713 2.780098 1.579164 -5.351683 -0.719063 0.343037 0.000000 0.000000 0.000000 7.188558 -25.472871 2.468662 -5.989624 -6.858165 -9.519138 30.525707 -4.891092 2.640415 28.104857 -7.273674 6.691768 2.838667 1.654656 3.453759 0.000000 0.000000 0.000000 5.601320 -29.350464 1.966623 -2.182701 5.505065 2.838948 -3.937880 9.073645 3.264890 3.127683 0.219754 -0.579272 0.000000 0.000000 0.000000 -0.218949 8.860958 1.544822 -15.472112 -1.649600 1.295592 -16.130585 5.398110 2.379499 0.000000 0.000000 0.000000 -4.983234 8.803468 1.411426 17.637799 9.149272 29.172592 3.489232 2.343711 -0.548420 -73.301078 -36.616439 -8.454458 -29.182834 -32.411027 23.148286 0.000000 0.000000 0.000000 -4.179587 9.345907 3.200448 8.049564 -5.659103 -34.306982 -2.646277 2.562174 -1.604499 -76.463633 28.610585 12.195700 -27.452525 31.493531 -0.524051 0.000000 0.000000 0.000000 
3.976979 175.414948 -18.821804 0.000000 0.000000 0.000000 4.320023 -34.599635 1.250372 -41.215605 3.615448 -3.640304 47.985094 0.104572 -0.208508 5.278006 6.061989 4.907375 -4.941129 -0.913168 -0.120914 0.000000 0.000000 0.000000 6.487426 -36.098912 1.688878 -6.013461 -8.251781 -10.841499 29.253488 -4.386266 1.627369 30.824862 -6.635943 3.272374 3.826044 1.363570 4.600605 0.000000 0.000000 0.000000 5.458469 -39.069317 1.222548 -0.292205 6.870930 3.136469 -3.161828 11.469489 3.603785 3.236397 -1.305138 -0.093691 0.000000 0.000000 0.000000 -0.023330 11.411847 1.740873 -14.675986 -1.552001 1.614049 -16.292199 7.313294 3.135646 0.000000 0.000000 0.000000 -3.904157 11.344929 1.223240 18.729453 11.597811 28.373820 2.044637 1.666169 0.206583 -70.861375 -33.223256 -2.525738 -29.367167 -31.080667 26.627573 0.000000 0.000000 0.000000 -3.382132 12.273601 3.552575 9.146549 -4.530091 -34.643140 -2.626623 1.873488 -2.743638 -78.002673 29.972403 13.165277 -27.450187 32.902240 -1.731284 0.000000 0.000000 0.000000 
3.932352 176.994537 -21.819988 0.000000 0.000000 0.000000 4.640369 -46.428648 1.115548 -38.457336 3.474261 -2.208975 41.396755 1.865485 -0.445528 5.100183 9.567694 7.495913 -4.840483 -1.061110 -0.567484 0.000000 0.000000 0.000000 6.143666 -46.999519 1.250592 -7.076109 -8.033018 -11.856679 27.336509 -2.072655 0.057061 34.493917 -4.967650 2.629960 1.370345 0.790257 5.136730 0.000000 0.000000 0.000000 5.620671 -48.923347 0.972640 0.979766 8.115900 3.141103 -2.245657 13.685441 3.710427 2.871683 -2.393239 0.238969 0.000000 0.000000 0.000000 0.354284 13.687928 1.819781 -13.222456 -1.859052 2.001826 -14.098422 9.129753 3.737568 0.000000 0.000000 0.000000 -2.665158 13.652089 0.958608 19.739335 13.404465 27.448360 0.762556 1.388821 1.743912 -68.578316 -30.287815 3.359833 -30.094968 -30.801742 28.561363 0.000000 0.000000 0.000000 -2.514817 14.887628 3.644727 9.805848 -3.593682 -34.630261 -1.924217 1.046029 -3.438647 -80.142489 31.186750 14.874192 -26.965688 34.659290 -3.564836 0.000000 0.000000 0.000000 
